<svg xmlns="http://www.w3.org/2000/svg" width="199.473" height="9.668" viewBox="0 0 199.473 9.668">
  <g id="Group_2439" data-name="Group 2439" transform="translate(388.13 -176.426)">
    <path id="Path_3974" data-name="Path 3974" d="M66.2,181.273c1.581.011,3.161-.053,4.741-.087.643-.014,1.286-.038,1.928-.061l8.5-.291q5.079-.174,10.159-.37l14.51-.559c1.109-.043,2.218-.072,3.326-.107l8.454-.275,8.455-.273c1.1-.036,2.207-.082,3.31-.107l13.49-.293,8.295-.18c1.082-.024,2.167-.059,3.249-.07q6.52-.065,13.04-.135l12.869-.133c1.132-.011,2.266-.006,3.4-.009l8.4-.023q6.531-.017,13.063-.034c1.424,0,2.849.007,4.272.01l8.945.022.74,0q-10.066.094-20.135.194l-8.408.086c-1.209.012-2.419.015-3.628.037q-6.083.109-12.164.228l-14.06.262c-.787.015-1.576.046-2.361.071l-7.487.238q-7.593.241-15.187.483c-.749.024-1.5.061-2.246.1l-7.417.354q-6.644.316-13.287.633c-1.221.059-2.441.141-3.66.212l-8.508.494c-3.6.209-7.211.412-10.814.629q-7.525.452-15.047.907l-3.609.217c-2.156.13-4.306.318-6.457.482-.228.017-.422.119-.422.291s.192.283.422.29l2.359.07a.805.805,0,0,0-.154.454c0,.553.7,1.1,1.543,1.065,6.15-.265,12.3-.552,18.453-.755l16.03-.526,17.723-.583,5.579-.184c.537-.017,1.074-.041,1.611-.05q14.275-.262,28.55-.517l15.258-.276q2.758-.05,5.512-.082l29.2-.315,12.512-.139c3.561-.039,7.123-.056,10.682-.148l8.823-.23c1.468-.038,2.938-.063,4.4-.126q5.008-.218,10.015-.446l-.007.008a.714.714,0,0,0-.141.739,1.11,1.11,0,0,0,.639.573,1.858,1.858,0,0,0,1.071.1q1.092-.3,2.175-.612l-.045.013.161-.047.186-.054-.068.02,1.155-.336c.4-.116.806-.233,1.207-.355.437-.131.855-.291,1.276-.446a1.068,1.068,0,0,0,.767-.923.83.83,0,0,0-.211-.54,1.541,1.541,0,0,0-.926-.492c-.373-.045-.745-.079-1.12-.112-.082-.007-.166-.01-.251-.01-.254,0-.517.025-.759.036-.567.028-1.13.086-1.7.114l-1.387.069-3.735.187c-.321.016-.644.029-.965.044a.791.791,0,0,0,.25-.316.651.651,0,0,0,.1-.3c.013-.073.028-.146.042-.219a.607.607,0,0,0-.069-.272l.1-.03a1.435,1.435,0,0,0,.56-.387.8.8,0,0,0,0-1.089l-.244-.219a1.823,1.823,0,0,0-.69-.278,5.846,5.846,0,0,0-1.491-.157c-.416,0-.835.021-1.246.024l-1.8.012c-.847.006-1.694.014-2.541.017l-6.712.024c-2.1.008-4.209.007-6.314.006q-2.87,0-5.738,0c-7.626.023-15.251.031-22.876.085l-17.154.119q-3.834.028-7.668.083l-17.189.251-4.9.072c-.948.014-1.9.048-2.843.073l-16.988.444-5.185.136c-.97.025-1.938.069-2.907.1l-16.874.626q-4.357.162-8.708.355L86.3,179.51c-4.3.186-8.612.348-12.918.522l-2.047.082c-1.1.045-2.207.075-3.31.109-.978.03-1.962.049-2.944.031a.689.689,0,0,0-.63-.3c-.633.035-1.265.082-1.9.129a.717.717,0,0,0-.66.346c-.1.242.115.521.479.582.274.045.547.092.823.136s.555.054.829.071C64.747,181.259,65.475,181.269,66.2,181.273Zm173.987-1.647h2.773a1.124,1.124,0,0,0,.373.374c-.358.017-.715.033-1.073.043l-2.021.052-8.823.229c-1.347.034-2.693.086-4.04.1l-6.312.069-14.424.158q-14,.156-28,.306c-6.684.074-13.366.218-20.047.339l-30.205.553c-2.019.037-4.037.126-6.054.192l-17.144.568-16.831.556-1.558.052q2.268-.126,4.537-.247l15.841-.836,5.532-.291c.951-.05,1.9-.082,2.856-.122l16.473-.689c1.073-.046,2.147-.105,3.222-.134l4.641-.124,16.985-.455,3.737-.1c.328-.008.657-.009.984-.014l2.625-.036,17.02-.24c2.614-.037,5.228-.08,7.842-.094,8.436-.047,16.871-.107,25.307-.133C223,179.672,231.592,179.631,240.187,179.626Z" transform="translate(-450)" fill="#126fed"/>
  </g>
</svg>
